<svg width="38" height="38" viewBox="0 0 38 38" fill="none" xmlns="http://www.w3.org/2000/svg">
<path d="M18.9998 5.31995C11.4562 5.31995 5.31982 11.4564 5.31982 18.9999C5.31982 26.5435 11.4562 32.6799 18.9998 32.6799C26.5434 32.6799 32.6798 26.5435 32.6798 18.9999C32.6798 11.4564 26.5434 5.31995 18.9998 5.31995ZM18.9998 6.07995C26.1233 6.07995 31.9198 11.8764 31.9198 18.9999C31.9198 26.1235 26.1233 31.9199 18.9998 31.9199C11.8763 31.9199 6.07982 26.1235 6.07982 18.9999C6.07982 11.8764 11.8763 6.07995 18.9998 6.07995ZM18.9998 7.21995C12.5042 7.21995 7.21982 12.5043 7.21982 18.9999C7.21982 25.4956 12.5042 30.7799 18.9998 30.7799C25.4954 30.7799 30.7798 25.4956 30.7798 18.9999C30.7798 15.6868 29.3726 12.5073 26.9175 10.2778C26.8403 10.208 26.7201 10.2124 26.6488 10.2911C26.579 10.3683 26.585 10.4885 26.6622 10.5598C29.0372 12.7166 30.3998 15.7937 30.3998 18.9999C30.3998 25.2863 25.2862 30.3999 18.9998 30.3999C12.7135 30.3999 7.59982 25.2863 7.59982 18.9999C7.59982 12.7136 12.7135 7.59995 18.9998 7.59995C20.3491 7.59995 21.6687 7.83299 22.9245 8.29315C23.0225 8.33026 23.1323 8.27979 23.1694 8.18034C23.2051 8.08088 23.1546 7.97252 23.0551 7.9369C21.7578 7.4619 20.3937 7.21995 18.9998 7.21995ZM24.1417 8.41487C24.0675 8.41041 23.9947 8.44901 23.9591 8.52026C23.9131 8.61377 23.9517 8.72807 24.0452 8.77409C24.299 8.90026 24.5499 9.03534 24.7919 9.17932C24.823 9.19713 24.8572 9.20604 24.8898 9.20604C24.9551 9.20604 25.0175 9.17338 25.0531 9.11252C25.1065 9.02346 25.0769 8.9062 24.9863 8.85276C24.7354 8.70432 24.4757 8.56331 24.2144 8.43416C24.1907 8.42229 24.1654 8.41635 24.1417 8.41487ZM25.6172 9.31885C25.5697 9.32776 25.5251 9.35448 25.494 9.39752C25.4346 9.48362 25.4554 9.60237 25.54 9.66323C25.6676 9.75081 25.7923 9.84135 25.914 9.93635C25.9482 9.96159 25.9897 9.97495 26.0298 9.97495C26.0862 9.97495 26.1441 9.94971 26.1812 9.90073C26.2451 9.8176 26.2287 9.69737 26.1456 9.63502C26.0179 9.53706 25.8903 9.44206 25.7582 9.35151C25.7166 9.32034 25.6647 9.31143 25.6172 9.32034V9.31885ZM11.7991 14.4399C11.5453 14.4399 11.3508 14.5067 11.2306 14.6418C11.1104 14.7769 11.0911 14.9446 11.0911 15.0812C11.0911 15.2222 11.1222 15.4419 11.1979 15.7625C11.2737 16.0846 11.3939 16.4973 11.575 16.9767C11.9357 17.9386 12.5383 19.1751 13.5032 20.4962C14.9148 22.4259 16.7792 23.5599 18.4788 23.5599C18.9835 23.5599 19.2893 23.5065 19.4986 23.3492C19.7079 23.1918 19.7465 22.9424 19.7465 22.7317V21.0009C19.7465 20.7827 19.7806 20.6565 19.8073 20.6135C19.8355 20.5719 19.8533 20.5585 19.9751 20.5585C20.0196 20.5585 20.1591 20.5927 20.3907 20.7649C20.6237 20.9385 20.9488 21.2428 21.3793 21.746C21.8765 22.3264 22.169 22.7554 22.4243 23.0597C22.6796 23.364 22.9408 23.5599 23.2926 23.5599H24.8171C25.0219 23.5599 25.1986 23.5184 25.3262 23.4011C25.4539 23.2824 25.5029 23.1117 25.5073 22.9395V22.938C25.5103 22.843 25.4969 22.7435 25.4687 22.6381L25.4658 22.6263C25.3337 22.2329 24.8794 21.4269 24.2189 20.6283V20.6268C23.8537 20.186 23.4351 19.7436 23.2956 19.5447H23.2941V19.5432C23.1962 19.4067 23.1813 19.3458 23.1843 19.3013C23.1872 19.2523 23.2214 19.1751 23.303 19.0341L23.306 19.0311C23.3045 19.0326 23.306 19.0311 23.3075 19.0281C23.309 19.0237 23.3134 19.0192 23.3179 19.0118C23.3312 18.9925 23.3505 18.9628 23.3772 18.9242C23.4292 18.8471 23.5064 18.7342 23.5984 18.5977C23.7854 18.3216 24.0378 17.9446 24.2961 17.5393C24.5544 17.1326 24.8201 16.6962 25.0338 16.2984C25.2476 15.905 25.4108 15.5592 25.4687 15.2831C25.5029 15.1658 25.5014 15.0604 25.4969 14.9862C25.4925 14.8615 25.4687 14.7175 25.3604 14.6032C25.252 14.4874 25.0872 14.4399 24.8869 14.4399H23.3624C23.1308 14.4399 22.9408 14.5156 22.8028 14.6299C22.6647 14.7428 22.5816 14.8867 22.5222 15.0203C22.5178 15.0292 21.5737 16.9604 20.5065 18.2177C20.3387 18.3943 20.2126 18.5012 20.1235 18.5561C20.0433 18.6051 19.9958 18.6155 19.9394 18.6185C19.935 18.617 19.9335 18.617 19.9276 18.6125C19.9068 18.5992 19.8771 18.5724 19.8489 18.5368C19.794 18.4671 19.7465 18.3646 19.7465 18.2429V15.2207C19.7465 15.0025 19.7272 14.8199 19.6233 14.6671C19.5194 14.5142 19.3294 14.4399 19.1304 14.4399H16.4942C16.3265 14.4399 16.1751 14.5142 16.0801 14.6225C15.9865 14.7309 15.9435 14.8674 15.9435 15.004C15.9435 15.2519 16.0504 15.4092 16.135 15.6037C16.2211 15.7967 16.3116 16.0594 16.3398 16.5849V18.6853C16.3398 18.8812 16.3369 18.9361 16.3354 18.9821C16.2938 18.9732 16.181 18.9257 16.0296 18.7669C15.8663 18.5917 15.6748 18.3246 15.4759 17.9846C15.0811 17.3033 14.6595 16.331 14.3211 15.1985L14.3196 15.1955V15.194C14.2424 14.9565 14.1622 14.7724 14.0183 14.6359C13.8758 14.4978 13.6798 14.4399 13.4587 14.4399H11.7991ZM11.7991 14.8199H13.4587C13.6234 14.8199 13.6917 14.8467 13.7555 14.909C13.8208 14.9714 13.8891 15.0975 13.9589 15.3113C14.3047 16.4676 14.7337 17.4606 15.1479 18.1761C15.3557 18.5324 15.559 18.8203 15.7535 19.0281C15.9494 19.2345 16.132 19.3799 16.3621 19.3799C16.4081 19.3799 16.4497 19.3874 16.5224 19.3651C16.5966 19.3443 16.6812 19.2523 16.7005 19.1825C16.7406 19.043 16.7198 18.9391 16.7198 18.6853V16.5641C16.6887 16 16.5818 15.672 16.4823 15.4508C16.3844 15.2281 16.3235 15.1421 16.3235 15.004C16.3235 14.9521 16.3413 14.9016 16.368 14.8719C16.3962 14.8407 16.4259 14.8199 16.4942 14.8199H19.1304C19.2566 14.8199 19.2804 14.8378 19.3086 14.8793C19.3368 14.9224 19.3679 15.0337 19.3679 15.2207V18.2414C19.3679 18.4611 19.4496 18.6437 19.5505 18.7714C19.601 18.8352 19.6559 18.8871 19.7123 18.9257C19.7702 18.9658 19.8251 18.9999 19.9216 18.9999C20.0478 18.9999 20.1858 18.9628 20.3224 18.8782C20.4604 18.7951 20.6029 18.6674 20.787 18.4745L20.79 18.4715L20.7929 18.4671C21.9166 17.146 22.8666 15.1792 22.8666 15.1792L22.8696 15.1732C22.9141 15.0723 22.9705 14.9832 23.0447 14.9209C23.119 14.86 23.208 14.8199 23.3624 14.8199H24.8883C25.0294 14.8199 25.0709 14.8496 25.0858 14.863C25.0991 14.8778 25.114 14.9149 25.1184 15.001V15.0025C25.1214 15.0723 25.1214 15.1257 25.1051 15.1806L25.1021 15.1896L25.1006 15.197C25.0605 15.387 24.9091 15.7343 24.7013 16.1173C24.492 16.5017 24.2308 16.9337 23.9754 17.3345C23.7201 17.7367 23.4693 18.1108 23.2852 18.3839C23.1917 18.5205 23.116 18.6333 23.064 18.7105C23.0373 18.7491 23.0165 18.7788 23.0017 18.801C22.9943 18.8114 22.9883 18.8203 22.9839 18.8292C22.9809 18.8322 22.9779 18.8367 22.9765 18.8411C22.975 18.8426 22.975 18.8441 22.9735 18.8456C22.9705 18.85 22.9631 18.8708 22.9631 18.8708C22.9616 18.8708 22.9601 18.8797 22.9601 18.8827C22.8844 19.0118 22.8132 19.1306 22.8058 19.282C22.7969 19.4423 22.8651 19.5967 22.9854 19.7644C23.1724 20.0316 23.5747 20.4457 23.9265 20.8688C24.5558 21.6317 25.0071 22.46 25.1036 22.7421C25.1214 22.8163 25.1303 22.8786 25.1288 22.9276C25.1258 23.0434 25.1006 23.0909 25.0694 23.1191C25.0383 23.1488 24.9685 23.1799 24.8186 23.1799H23.2926C23.067 23.1799 22.9483 23.0909 22.7152 22.8148C22.4822 22.5387 22.1779 22.0934 21.6687 21.4981C21.2249 20.9816 20.8865 20.6595 20.6193 20.4606C20.3506 20.2617 20.1532 20.1785 19.9751 20.1785C19.7851 20.1785 19.5936 20.2483 19.4912 20.4056C19.3872 20.563 19.3665 20.753 19.3665 21.0009V22.7331C19.3665 22.9098 19.3561 22.981 19.27 23.0449C19.1839 23.1087 18.9508 23.1799 18.4788 23.1799C16.9499 23.1799 15.1687 22.129 13.8104 20.2721C12.8679 18.9806 12.2815 17.7753 11.9312 16.8446C11.7561 16.3785 11.6403 15.9807 11.569 15.6764C11.4963 15.3706 11.4711 15.151 11.4711 15.0812C11.4711 14.9847 11.4859 14.9253 11.5156 14.8942C11.5438 14.863 11.6076 14.8199 11.7991 14.8199Z" fill="white"/>
</svg>
